<svg width="598" height="281" viewBox="0 0 598 281" fill="none" xmlns="http://www.w3.org/2000/svg">
<g clip-path="url(#clip0_1_807)">
<path d="M0 87.57H165.37V128.29H107.59V280.46H57.23V128.29H0V87.57Z" fill="#FF7420"/>
<path d="M306.81 280.46H360.47L279.57 87.57H227.84L145.02 280.46H196.75L210.27 245.79H293.56L306.81 280.46ZM225.07 207.82L252.33 137.93L279.05 207.82H225.07Z" fill="#BA4200"/>
<path d="M385.02 87.57C385.46 90.12 386.44 93.98 388.93 98C389.99 99.71 391.02 100.96 391.93 102C396.83 107.57 401.67 110.66 405.93 114C408.91 116.33 414.25 120.51 418.93 126C423.7 131.59 426.52 137.05 428.16 140.81V87.57H385.02ZM427.43 179.5C425.17 175.19 420.3 166.04 412.43 157.5C408.49 153.22 402.47 148.98 390.43 140.5C385.22 136.83 380.86 133.92 377.93 132C377.89 181.49 377.85 230.97 377.81 280.46H428.16V180.92C427.94 180.47 427.69 180 427.43 179.5Z" fill="#BA4200"/>
<path d="M465.57 87.57H515.92V238.09H597.64V280.47H465.57V87.57Z" fill="#FF7420"/>
<path d="M418.38 2.16C404.07 -0.0999999 389.31 4.18 374.41 14.89C378.44 6.03 378.45 6.02 378.45 6.02L381.14 0L375.87 3.96C372.01 6.86 369.26 9.34 366.35 12.52C358.66 20.94 352.15 30.49 347.01 40.9C346.59 41.75 346.18 42.61 345.79 43.46C341.91 51.97 339.8 60.29 339.51 68.22C339.42 70.72 339.51 73.22 339.78 75.65C340.53 82.49 342.35 88.65 345.33 94.48C347.98 99.67 351.51 104.46 356.09 109.14C364.53 117.74 375.37 124.61 385.85 131.25C394.16 136.51 402.5 141.82 409.96 148.28C410.55 148.79 411.13 149.32 411.7 149.86C414.44 152.45 416.9 155.31 419.16 158.32C421.89 161.8 424.88 166.1 427.22 170.73L427.23 170.74C427.46 171.17 427.69 171.59 427.92 172.02C428.01 171.67 428.16 171.08 428.32 170.35C431.9 153.65 423.25 139.17 421.92 137.02C419.63 133.31 417.31 130.71 414.51 127.58C409.92 122.45 406.21 119.39 404.39 118.03C403.64 117.47 402.87 116.9 402.12 116.35C394.36 110.61 386.33 104.68 382.64 96.15C380.75 91.76 380.49 86.94 381.9 82.22C381.92 82.15 384.18 74.79 390.36 66.5C396.03 58.9 406.27 48.92 422.86 44.55L431.38 42.31L413.9 40.13C416.52 38.16 420.66 35.33 425.63 32.96C436.94 27.57 447 26.94 455.53 31.1L460.98 33.76L457.71 28.66C457.56 28.43 454.01 22.93 447.39 16.89C443.5 13.34 439.36 10.35 435.07 8C429.7 5.01 424.08 3.06 418.38 2.16ZM445.03 19.31C447.67 21.71 449.82 24.05 451.42 25.96C447.7 25 443.76 24.75 439.63 25.22C434.67 25.77 429.45 27.35 424.1 29.91C415.07 34.23 408.85 39.81 408.59 40.04L405.83 42.53L414.69 43.63C409.73 45.59 405.1 48.14 400.86 51.26C395.85 54.94 391.38 59.42 387.56 64.55C386.42 66.09 385.4 67.6 384.5 69.04L396.39 48.25C388.05 58.83 376.88 58.46 376.88 58.46C377.53 38.25 394.18 28.49 394.18 28.49C383.58 25.59 371.28 36.82 371.28 36.82C381.15 17.83 401.25 12.96 401.25 12.96L381.59 14.17C393.93 6.58 406.07 3.67 417.81 5.51C429.85 7.4 439.26 14.06 445.03 19.31Z" fill="#F6921E"/>
<path d="M342.69 55.72C342.69 55.72 351.1 43.09 358.1 39.37C358.1 39.37 338.89 58.23 355.39 83.8L359.84 76.36C359.84 76.36 357.39 104.61 374.69 124.01C367.99 119.5 361.55 114.68 356.11 109.13C351.52 104.45 348 99.66 345.35 94.47C342.36 88.64 340.55 82.48 339.8 75.64C339.53 73.21 339.44 70.71 339.53 68.21C339.72 63 340.7 57.62 342.45 52.13L342.69 55.72Z" fill="#EC7B31"/>
</g>
<defs>
<clipPath id="clip0_1_807">
<rect width="597.65" height="280.46" fill="white"/>
</clipPath>
</defs>
</svg>
